HIERARCHY
ROOT HipCenter
{
    OFFSET 0.0 0.0 -0.0
    CHANNELS 6 Xposition Yposition Zposition Zrotation Xrotation Yrotation
    JOINT Spine
    {
        OFFSET 0.0 11.320340156555176 0.0
        CHANNELS 3 Zrotation Xrotation Yrotation
        JOINT ShoulderCenter
        {
            OFFSET 0.0 32.61629867553711 0.0
            CHANNELS 3 Zrotation Xrotation Yrotation
            JOINT LeftShoulder
            {
                OFFSET 18.403051376342773 0.0 0.0
                CHANNELS 3 Zrotation Xrotation Yrotation
                JOINT LeftElbow
                {
                    OFFSET 32.475563049316406 0.0 0.0
                    CHANNELS 3 Zrotation Xrotation Yrotation
                    JOINT LeftWrist
                    {
                        OFFSET 30.971664428710938 0.0 0.0
                        CHANNELS 3 Zrotation Xrotation Yrotation
                        JOINT LeftHand
                        {
                            OFFSET 3.392228841781616 0.0 0.0
                            CHANNELS 3 Zrotation Xrotation Yrotation
                            End Site
                            {
                                OFFSET 1.3568916320800781 0.0 0.0
                            }
                        }
                    }
                }
            }
            JOINT RightShoulder
            {
                OFFSET -18.403051376342773 0.0 0.0
                CHANNELS 3 Zrotation Xrotation Yrotation
                JOINT RightElbow
                {
                    OFFSET -32.475563049316406 0.0 0.0
                    CHANNELS 3 Zrotation Xrotation Yrotation
                    JOINT RightWrist
                    {
                        OFFSET -30.971664428710938 0.0 0.0
                        CHANNELS 3 Zrotation Xrotation Yrotation
                        JOINT RightHand
                        {
                            OFFSET -3.392228841781616 0.0 0.0
                            CHANNELS 3 Zrotation Xrotation Yrotation
                            End Site
                            {
                                OFFSET -1.3568916320800781 0.0 0.0
                            }
                        }
                    }
                }
            }
            End Site
            {
                OFFSET 0.0 13.046518325805664 0.0
            }
        }
    }
    JOINT LeftHip
    {
        OFFSET 14.509258270263672 0.0 0.0
        CHANNELS 3 Zrotation Xrotation Yrotation
        JOINT LeftKnee
        {
            OFFSET 0.0 -42.4261474609375 0.0
            CHANNELS 3 Zrotation Xrotation Yrotation
            JOINT LeftAnkle
            {
                OFFSET 0.0 -46.0966796875 0.0
                CHANNELS 3 Zrotation Xrotation Yrotation
                JOINT LeftFoot
                {
                    OFFSET 0.0 -13.585254669189453 0.0
                    CHANNELS 3 Zrotation Xrotation Yrotation
                    End Site
                    {
                        OFFSET 0.0 0.0 5.434101581573486
                    }
                }
            }
        }
    }
    JOINT RightHip
    {
        OFFSET -14.509258270263672 0.0 0.0
        CHANNELS 3 Zrotation Xrotation Yrotation
        JOINT RightKnee
        {
            OFFSET 0.0 -42.4261474609375 0.0
            CHANNELS 3 Zrotation Xrotation Yrotation
            JOINT RightAnkle
            {
                OFFSET 0.0 -46.0966796875 0.0
                CHANNELS 3 Zrotation Xrotation Yrotation
                JOINT RightFoot
                {
                    OFFSET 0.0 -13.585254669189453 0.0
                    CHANNELS 3 Zrotation Xrotation Yrotation
                    End Site
                    {
                        OFFSET 0.0 0.0 5.434101581573486
                    }
                }
            }
        }
    }
}
MOTION
Frames: 5
Frame Time: 0.03333333333333333
-2.8000001907348633 1.2000000476837158 19.600000381469727 -4.0856181662459194 10.09947308117557 -60.98575629875903 4.237871825632297 -3.737352360524962 -0.3463685540041786 -6.318027006333457e-07 5.20978705271016e-08 -39.29798064358742 164.3962228229123 -11.592014782603169 -123.08428592736834 2.3493246210747913e-06 -1.879807671443003e-06 82.59001820242898 7.86289132384922e-08 -80.59822499528225 32.77827260974739 -4.770832022195277e-15 -6.361109362927035e-15 -3.1805546814635176e-15 -151.66854899594992 13.030143972368545 -163.3877122786021 2.9113320580412306e-06 -1.755105258283534e-07 -94.84067133623236 -2.346961210659093e-06 -23.880307487725343 -45.0756857709045 -7.951386703658792e-16 2.2069531490250793e-32 -3.1805546814635168e-15 11.932522539928101 11.717871376866738 -33.400108873197475 -14.918909851810847 13.410815429370286 -7.78949859132833 120.93254388135124 3.3050565785232275 -178.13543826611402 -6.361109362927035e-15 3.531125038440127e-31 -6.361109362927035e-15 15.970418973815375 -26.236745906829604 -7.173053801704 -24.080409765481715 16.141408874156078 35.65330611088175 66.50848292831982 -41.44268117427192 1.9298659927539383 0.0 6.3611093629270335e-15 0.0
-2.8999998569488525 1.4000000953674316 19.30000114440918 -4.594252134695339 9.597784146379931 -57.97347157620397 3.340221106604956 -3.1297444422638616 -0.3085516476077857 2.3340241736375e-07 3.4259567799117927e-07 -36.94723834875225 164.34289244863248 -11.164436465125853 -122.72469264622116 1.2837314384856967e-06 -5.944817147246251e-07 81.79657429932656 -1.8809067238682513e-05 -80.60018624739295 32.37520155178495 -5.565970692561154e-15 1.5448672043175555e-31 -3.1805546814635168e-15 -150.66217078430083 12.87757313165434 -163.41736375148616 1.09423721914254e-06 8.441142543716614e-07 -94.95955679883504 3.3980218457249796e-06 -24.784004802076193 -47.31671074321094 -3.1805546814635164e-15 6.361109362927033e-15 1.7655625192200634e-31 13.004186206149837 11.249507832976011 -33.89109469869748 -15.008373697224588 13.741074727294603 -8.590936351302828 119.54917948635197 2.331457372097664 -178.70656549502573 -3.531125038440127e-31 -6.3611093629270335e-15 -6.3611093629270335e-15 14.831155316654815 -25.41013858994621 -7.340979318735885 -23.712187560726637 16.212669988917323 36.114717704526676 67.03548653665855 -44.92593057900685 2.3272562434271236 -3.1805546814635176e-15 4.770832022195275e-15 1.1131941385122309e-14
-2.8999998569488525 1.600000023841858 19.0 -5.1478844230030125 9.67482154042908 -54.621450531253515 3.9421355275244996 -2.96847895946567 -0.3101932830179209 7.548315133063547e-07 2.8565882627855987e-07 -35.25039152426149 164.11199544421135 -10.36514968399792 -123.91031303489332 3.9960810788731834e-07 1.3655044353599543e-06 81.61330412252792 1.9282148731216014e-06 -78.44642777517929 30.312613729119935 -2.3854160110976376e-15 6.3611093629270335e-15 1.3241718894150476e-31 -150.68937757018844 12.247175309596047 -164.93842961535904 -4.410120135192483e-06 -1.212114895465046e-06 -94.52820285898093 9.761595861584242e-07 -24.3484623879108 -45.65631063122241 1.7655625192200634e-31 6.361109362927033e-15 -3.1805546814635164e-15 14.18223011470257 10.420948306617309 -33.93307443351499 -14.699940055921626 14.295957209491386 -9.181534823578069 117.43549169114698 1.4242407788411395 -179.1608429445972 0.0 3.1805546814635168e-15 0.0 14.097970710112843 -24.902200604777487 -7.0283178436578115 -23.323488688530627 16.68868999655795 38.38959194901744 66.97748146266665 -50.894734473254545 2.1323437490186037 -1.1034765745125397e-31 -7.951386703658792e-15 -1.5902773407317584e-15
-3.0 1.7999999523162842 18.799999237060547 -6.679886323446479 8.649161858123177 -50.31232875897706 4.024988069128474 -1.536271054231841 -0.15957255024923284 -4.001503279401019e-07 -2.0307981915537366e-07 -32.96168487113412 163.53695603588952 -9.873285782926896 -124.83869762059024 2.395828160075894e-06 -2.7944604242702337e-07 81.01930572278455 -9.796360614072387e-06 -79.1694274544803 29.855743367630577 -1.4039167148647555e-15 3.8966516537474057e-32 -3.1805546814635168e-15 -150.8347011386283 11.577154434237071 -165.72066489685406 1.9741255029509417e-06 4.1138408129851506e-07 -94.2037292685842 2.2120960685719485e-06 -25.14351039616128 -46.03372187324968 0.0 0.0 0.0 15.471954128229964 10.511822540229442 -33.33015183131464 -14.081406085971288 15.10557735652 -10.475143059375362 114.9222062165012 0.11044156565540154 -179.9333387926085 0.0 6.3611093629270335e-15 0.0 12.65187953489487 -23.219442454055876 -7.7639410505584205 -23.07767574964422 17.405911879126855 41.46869305555853 65.58558813158119 -57.51310367698813 0.7749841921775146 3.1805546814635168e-15 -4.4139062980501586e-32 -1.5902773407317584e-15
-3.0999999046325684 1.899999976158142 18.399999618530273 -7.188536342495714 8.639968842673984 -45.742427910883926 4.614051885665051 -1.845514469581748 -0.18160871905100545 6.738650131088966e-07 8.039551683641771e-08 -30.579227273682797 162.83281446379297 -9.324604688977884 -125.51789826088621 3.063580591752706e-06 1.765016499770872e-07 79.04170153844157 -2.8847044988043537e-05 -82.11799805925992 31.70851861047049 -8.74652537402467e-15 -2.427648463927587e-31 3.1805546814635168e-15 -151.14765014664732 10.982796892643695 -167.04800485433506 9.456854466393182e-07 -1.6156139436955427e-06 -93.76868332281721 -1.1729709352765695e-06 -24.14862066158028 -44.709539609660105 -3.1805546814635168e-15 1.7655625192200634e-31 -6.3611093629270335e-15 17.56645696229625 8.528034423584378 -33.66546363066429 -14.681632552045812 15.845199154962332 -11.69035241296016 111.53223797966997 -1.064841126975874 179.3100197225771 6.3611093629270335e-15 6.3611093629270335e-15 -3.1805546814635168e-15 11.537333670022415 -22.799060736943325 -7.275110577124318 -22.27399257920893 18.2621791883872 43.989154062088716 63.31212038577812 -64.59721042492072 -1.1510548083235943 0.0 0.0 9.54166404439055e-15
